<svg width="114" height="40" viewBox="0 0 114 40" fill="none" xmlns="http://www.w3.org/2000/svg">
<path d="M0.475233 0.585716H27.3637V7.02857H7.64548V16.4H26.9653V22.6476H7.44631V32.019H27.3637V38.4619H0.276062V0.585716H0.475233ZM101.058 39.0476C109.224 39.0476 114.004 35.1429 114.004 29.8714C114.004 25.9667 111.216 23.2333 105.44 22.0619L99.2653 20.6952C95.6802 20.1095 94.6843 19.5238 94.6843 18.1571C94.6843 16.5952 96.2777 15.4238 99.4645 15.4238C102.85 15.4238 105.44 16.4 106.037 19.3286H113.207C113.008 13.6667 108.626 9.76191 99.8628 9.76191C92.4934 9.76191 87.1157 12.8857 87.1157 18.7429C87.1157 22.6476 90.1033 25.381 96.2777 26.5524L103.05 28.3095C105.838 28.7 106.635 29.481 106.635 30.6524C106.635 32.4095 104.643 33.3857 101.257 33.3857C97.2736 33.3857 94.6843 32.6048 93.8876 29.481H86.5182C87.5141 35.3381 92.0951 39.2429 101.058 39.2429V39.0476ZM84.5265 32.019H79.1488C77.5554 32.019 76.5595 31.4333 76.5595 29.8714V16.7905H84.5265V10.5429H76.5595V2.73334H69.1901V10.5429H63.8124V16.7905H69.1901V31.6286C69.1901 35.5333 71.9785 38.4619 76.7587 38.4619H84.7257V32.019H84.5265ZM60.6256 10.5429V38.4619H53.6546V35.9238C51.4584 37.6509 48.809 38.7345 46.0118 39.0495C43.2147 39.3646 40.3836 38.8983 37.845 37.7044C35.3065 36.5106 33.1638 34.6378 31.6641 32.3019C30.1644 29.9661 29.3686 27.2623 29.3686 24.5024C29.3686 21.7424 30.1644 19.0387 31.6641 16.7028C33.1638 14.367 35.3065 12.4942 37.845 11.3003C40.3836 10.1065 43.2147 9.64019 46.0118 9.95524C48.809 10.2703 51.4584 11.3538 53.6546 13.081V10.5429H60.8248H60.6256ZM53.6546 24.4048C53.6546 19.719 49.8703 16.0095 45.0901 16.0095C40.3099 16.0095 36.5256 19.719 36.5256 24.4048C36.5256 26.6313 37.428 28.7667 39.0341 30.3411C40.6403 31.9155 42.8187 32.8 45.0901 32.8C47.3615 32.8 49.54 31.9155 51.1461 30.3411C52.7522 28.7667 53.6546 26.6313 53.6546 24.4048Z" fill="#06C167"/>
</svg>
