<svg width="26" height="25" viewBox="0 0 26 25" fill="none" xmlns="http://www.w3.org/2000/svg">
<g clip-path="url(#clip0_474_3195)">
<path d="M25.8025 12.5973C25.8025 11.7284 25.7336 10.8548 25.5867 10H13.8025V14.9221H20.5507C20.2707 16.5096 19.12 18.1076 17.8025 19L18.0534 22L21.8025 22C24.1667 19.7738 25.8025 16.4861 25.8025 12.5973Z" fill="#4285F4"/>
<path d="M13.4979 25C16.8768 25 19.7263 23.9045 21.8025 22.0136L17.8025 19C16.6792 19.7545 15.192 20.1045 13.5025 20.1045C10.2341 20.1045 7.2968 17.9273 6.30247 15H2.30247V18.1864C4.42924 22.3636 8.76104 25 13.4979 25Z" fill="#34A853"/>
<path d="M6.30247 15C5.72936 13.4787 5.97936 11.5213 6.55247 10L6.80247 7L2.30246 6.75C0.361945 10.2111 0.317342 14.5389 2.25785 18L6.30247 15Z" fill="#FBBC04"/>
<path d="M13.7391 4.89366C15.5637 4.8664 17.3272 5.52968 18.6486 6.7472L22.3025 3.21729C19.9888 1.11841 16.918 -0.0355109 13.7391 0.000833182C8.90017 0.000833182 4.47505 2.57043 2.30247 6.75L6.55359 10C7.56464 7.06976 10.4003 4.89366 13.7391 4.89366Z" fill="#EA4335"/>
</g>
<defs>
<clipPath id="clip0_474_3195">
<rect width="25" height="25" fill="white" transform="translate(0.802469)"/>
</clipPath>
</defs>
</svg>
