<svg width="117" height="41" viewBox="0 0 117 41" fill="none" xmlns="http://www.w3.org/2000/svg">
<path d="M15.8889 35.4504C21.4603 35.4504 25.5873 31.3041 25.5873 24.8775V0H31.7778V40.2186H25.5873V36.4869C24.2422 37.8656 22.6369 38.9608 20.8653 39.7083C19.0936 40.4559 17.1914 40.8408 15.2698 40.8405C6.60317 40.8405 0 34.6211 0 25.0848V0.207312H6.19048V24.8775C6.19048 31.0968 10.3175 35.4504 15.8889 35.4504ZM36.1111 40.2186H41.6825V36.4869C43.7896 38.6358 46.4878 40.103 49.4307 40.7003C52.3737 41.2976 55.4272 40.9977 58.1993 39.8392C60.9714 38.6806 63.3357 36.7162 64.9886 34.198C66.6416 31.6799 67.5078 28.723 67.4762 25.7067C67.4762 17.2069 60.873 10.3656 52.4127 10.3656C50.5056 10.3382 48.6121 10.6904 46.8412 11.4021C45.0704 12.1137 43.4574 13.1706 42.0952 14.5119V0H36.3175V40.2186H36.1111ZM51.7937 35.6577C49.112 35.6577 46.5402 34.5874 44.644 32.6824C42.7478 30.7773 41.6825 28.1935 41.6825 25.4994C41.476 24.0579 41.5804 22.5887 41.9886 21.1913C42.3968 19.7939 43.0993 18.501 44.0484 17.4003C44.9976 16.2996 46.1712 15.4168 47.4898 14.8118C48.8083 14.2068 50.2409 13.8936 51.6905 13.8936C53.14 13.8936 54.5727 14.2068 55.8912 14.8118C57.2097 15.4168 58.3834 16.2996 59.3325 17.4003C60.2817 18.501 60.9842 19.7939 61.3924 21.1913C61.8006 22.5887 61.905 24.0579 61.6984 25.4994C61.6984 31.3041 57.1587 35.865 51.7937 35.865V35.6577ZM84.8095 10.3656C82.8237 10.3377 80.8524 10.7101 79.0123 11.4607C77.1721 12.2114 75.5005 13.3251 74.0961 14.736C72.6918 16.1469 71.5833 17.8264 70.8361 19.6751C70.0889 21.5238 69.7183 23.5043 69.746 25.4994C69.746 34.2065 76.3492 40.8405 85.2222 40.8405C90.381 40.8405 94.7143 38.3527 97.6032 34.6211L93.4762 31.5114C91.4127 34.4138 88.5238 35.6577 85.2222 35.6577C82.8818 35.6839 80.6109 34.8589 78.8284 33.3348C77.046 31.8108 75.8723 29.6905 75.5238 27.3652H99.254V25.4994C99.254 16.7923 93.0635 10.3656 84.8095 10.3656ZM75.7302 22.8043C76.1142 20.7176 77.2103 18.8307 78.8298 17.4685C80.4494 16.1063 82.491 15.354 84.6032 15.3411C88.7302 15.3411 92.4444 18.4508 93.2698 22.8043H75.7302ZM117 16.1703V10.7802H114.937C111.841 10.7802 109.571 12.2314 108.127 14.5119V10.9875H102.349V40.0112H108.127V23.4263C108.127 19.0727 110.81 16.1703 114.524 16.1703H117Z" fill="white"/>
</svg>
